<?xml version="1.0" standalone="no"?><!DOCTYPE svg PUBLIC "-//W3C//DTD SVG 1.1//EN" "http://www.w3.org/Graphics/SVG/1.1/DTD/svg11.dtd"><svg t="1586493541118" class="icon" viewBox="0 0 1024 1024" version="1.1" xmlns="http://www.w3.org/2000/svg" p-id="6576" xmlns:xlink="http://www.w3.org/1999/xlink" width="128" height="128"><defs><style type="text/css"></style></defs><path d="M0 291.882667V976.213333c0 14.506667 11.52 26.496 25.685333 26.496a25.173333 25.173333 0 0 0 22.784-14.677333l175.701334-364.629333c12.714667-26.197333 43.52-36.821333 68.736-23.637334 4.992 2.432 9.386667 5.76 13.312 9.813334l169.6 176a50.133333 50.133333 0 0 0 72.362666 0L1024 291.84V90.666667a26.112 26.112 0 0 0-25.685333-26.666667 25.173333 25.173333 0 0 0-18.090667 7.722667L548.181333 520.064a49.92 49.92 0 0 1-72.362666 0L43.605333 71.722667a25.088 25.088 0 0 0-36.181333 0A27.861333 27.861333 0 0 0 0 90.666667V291.84z" fill="#2A66B0" p-id="6577"></path><path d="M978.474667 519.466667l-202.709334 217.173333a30.464 30.464 0 0 0 0 40.618667l202.666667 216.96a25.344 25.344 0 0 0 37.802667 0 29.184 29.184 0 0 0 7.765333-20.224V539.562667c0-15.701333-11.861333-28.586667-26.666667-28.586667a25.770667 25.770667 0 0 0-18.858666 8.533333" fill="#28B8CA" p-id="6578"></path></svg>