<?xml version="1.0" standalone="no"?><!DOCTYPE svg PUBLIC "-//W3C//DTD SVG 1.1//EN" "http://www.w3.org/Graphics/SVG/1.1/DTD/svg11.dtd"><svg t="1574649864018" class="icon" viewBox="0 0 1280 1024" version="1.1" xmlns="http://www.w3.org/2000/svg" p-id="1970" xmlns:xlink="http://www.w3.org/1999/xlink" width="250" height="200"><defs><style type="text/css"></style></defs><path d="M0 832a640 144 0 1 0 1280 0 640 144 0 1 0-1280 0Z" fill="#F5F6F7" p-id="1971"></path><path d="M370.512 176h538.976a80 80 0 0 1 72.224 45.6L1120 512v288a80 80 0 0 1-80 80H240a80 80 0 0 1-80-80V512l138.288-290.4A80 80 0 0 1 370.512 176z" fill="#FFFFFF" p-id="1972"></path><path d="M370.512 176h538.976a80 80 0 0 1 72.224 45.6L1120 512v288a80 80 0 0 1-80 80H240a80 80 0 0 1-80-80V512l138.288-290.4A80 80 0 0 1 370.512 176zM1104 515.616L967.264 228.48A64 64 0 0 0 909.488 192H370.512a64 64 0 0 0-57.776 36.48L176 515.616V800a64 64 0 0 0 64 64h800a64 64 0 0 0 64-64V515.616z" fill="#D7D8D9" p-id="1973"></path><path d="M270.912 529.44H360v102.56A40 40 0 0 0 400 672h480a40 40 0 0 0 40-40v-102.56h89.088a20 20 0 0 0 18.24-28.176l-106.72-237.648A40 40 0 0 0 884.128 240H395.872a40 40 0 0 0-36.48 23.616L252.64 501.264a20 20 0 0 0 18.24 28.192z" fill="#F5F6F7" p-id="1974"></path><path d="M270.912 529.44H360v102.56A40 40 0 0 0 400 672h480a40 40 0 0 0 40-40v-102.56h89.088a20 20 0 0 0 18.24-28.176l-106.72-237.648A40 40 0 0 0 884.128 240H395.872a40 40 0 0 0-36.48 23.616L252.64 501.264a20 20 0 0 0 18.24 28.192z m0-16a4 4 0 0 1-3.648-5.632l106.72-237.648A24 24 0 0 1 395.888 256h488.224a24 24 0 0 1 21.904 14.16l106.72 237.648a4 4 0 0 1-3.648 5.648H904V632A24 24 0 0 1 880 656H400a24 24 0 0 1-24-24v-118.56h-105.088z" fill="#D7D8D9" p-id="1975"></path><path d="M480 720m32 0l256 0q32 0 32 32l0 0q0 32-32 32l-256 0q-32 0-32-32l0 0q0-32 32-32Z" fill="#F5F6F7" p-id="1976"></path><path d="M512 720h256a32 32 0 1 1 0 64H512a32 32 0 1 1 0-64z m0 16a16 16 0 0 0 0 32h256a16 16 0 0 0 0-32H512zM454.88 532.064c6.944-11.776 13.824-23.104 20.656-34.016a8 8 0 1 0-13.552-8.48c-6.912 11.008-13.872 22.48-20.88 34.368a8 8 0 1 0 13.792 8.128z m42.304-67.328c7.68-11.392 15.28-22.208 22.832-32.448a8 8 0 1 0-12.896-9.488c-7.68 10.432-15.408 21.44-23.2 32.992a8 8 0 1 0 13.264 8.944z m47.168-63.84a568.8 568.8 0 0 1 26.016-29.632 8 8 0 1 0-11.648-10.992c-8.832 9.36-17.744 19.52-26.736 30.48a8 8 0 1 0 12.368 10.16z m54.256-56.96a278.512 278.512 0 0 1 30.88-23.616 8 8 0 1 0-8.72-13.392 294.4 294.4 0 0 0-32.688 24.96 8 8 0 1 0 10.528 12.048z m64.912-41.28a119.728 119.728 0 0 1 36.624-8.064 8 8 0 0 0-0.832-15.984 135.664 135.664 0 0 0-41.504 9.104 8 8 0 1 0 5.712 14.944z m74.384-2.816a124.272 124.272 0 0 1 33.856 17.968 8 8 0 0 0 9.792-12.672 140.272 140.272 0 0 0-38.528-20.464 8 8 0 0 0-5.12 15.168z m51.648 47.28c1.744 11.168-0.64 23.12-6.896 33.984a8 8 0 0 0 13.856 8c8.048-13.968 11.168-29.6 8.848-44.464a8 8 0 0 0-15.808 2.48z m-32.48 59.008c-10 5.808-21.792 9.728-35.024 11.424a8 8 0 1 0 2.048 15.872c15.296-1.968 29.12-6.56 41.008-13.44a8 8 0 1 0-8.016-13.856z m-73.76 10.48a186.24 186.24 0 0 1-22.848-5.184 88.384 88.384 0 0 1-14-5.36 8 8 0 0 0-7.008 14.384c5.104 2.48 10.368 4.512 16.512 6.32 8.496 2.48 16.768 4.368 24.848 5.648a8 8 0 1 0 2.512-15.808z m-65.616-33.792a98.688 98.688 0 0 1-16.848-32.96 8 8 0 1 0-15.312 4.608c4.32 14.352 10.928 27.28 19.616 38.272a8 8 0 0 0 12.544-9.92z m-22.048-71.344c0.112-12.256 1.776-24.96 4.992-37.776a8 8 0 0 0-15.52-3.888c-3.52 14.032-5.344 27.968-5.472 41.52a8 8 0 0 0 16 0.16z m17.696-73.12a224 224 0 0 1 19.456-33.36 8 8 0 1 0-13.088-9.2 240 240 0 0 0-20.848 35.76 8 8 0 0 0 14.48 6.8z m45.12-64.288a294.032 294.032 0 0 1 28.896-26.08 8 8 0 0 0-9.92-12.56 310.016 310.016 0 0 0-30.48 27.52 8 8 0 1 0 11.504 11.12z m61.824-49.008a384.672 384.672 0 0 1 34.432-18.72 8 8 0 1 0-6.928-14.416c-12.592 6.048-24.544 12.544-35.872 19.488a8 8 0 1 0 8.368 13.648z m68.16-33.184a495.792 495.792 0 0 1 37.328-12.512 8 8 0 1 0-4.48-15.36c-13.328 3.888-26.176 8.208-38.544 12.912a8 8 0 1 0 5.696 14.96z m76-22.32c12.576-2.736 25.52-5.12 38.848-7.168a8 8 0 1 0-2.416-15.808c-13.648 2.08-26.928 4.528-39.84 7.328a8 8 0 0 0 3.408 15.648z m78.592-12.08c5.76-0.56 11.552-1.056 17.44-1.488a8 8 0 1 0-1.184-15.952c-5.984 0.432-11.92 0.944-17.792 1.504a8 8 0 0 0 1.536 15.936z" fill="#D7D8D9" p-id="1977"></path></svg>